Coordinates
version=1
nRows=29
nColumns=32
inDegrees=no

Units are S.I. units (second, meters, Newtons, ...)
If the header above contains a line with 'inDegrees', this indicates whether rotational values are in degrees (yes) or radians (no).

endheader
time	pelvis_tilt	pelvis_list	pelvis_rotation	pelvis_tx	pelvis_ty	pelvis_tz	hip_flexion_r	hip_adduction_r	hip_rotation_r	knee_angle_r	ankle_angle_r	subtalar_angle_r	mtp_angle_r	hip_flexion_l	hip_adduction_l	hip_rotation_l	knee_angle_l	ankle_angle_l	subtalar_angle_l	mtp_angle_l	lumbar_extension	lumbar_bending	lumbar_rotation	arm_flex_r	arm_add_r	arm_rot_r	elbow_flex_r	arm_flex_l	arm_add_l	arm_rot_l	elbow_flex_l
7.16	-0.962334	-0.0651713	0.0762885	0.592074	0.679566	1.22439	0.512216	-0.050937	-0.0199158	1.30301	-0.242902	-0.211044	0.000375806	0.41277	-0.198756	-0.0410706	1.18019	-0.158753	-0.0154662	0.000963138	0.578228	-0.0361266	0.0155358	-0.725501	-1.04134	-1.563	2.07946	-0.501589	-1.31189	-1.59883	2.24436
7.165	-0.96278	-0.065349	0.0759884	0.592271	0.679431	1.22437	0.512294	-0.0507169	-0.0198748	1.30264	-0.242245	-0.210732	0.000376168	0.412701	-0.199009	-0.0414286	1.1798	-0.158635	-0.0149245	0.000963442	0.578393	-0.0358478	0.0156158	-0.725565	-1.04119	-1.56292	2.07948	-0.502343	-1.31177	-1.59872	2.24468
7.17	-0.963246	-0.0655479	0.0756829	0.592468	0.679294	1.22436	0.51239	-0.0504628	-0.0198154	1.30224	-0.241847	-0.210937	0.00037653	0.412661	-0.199313	-0.0418311	1.17944	-0.158564	-0.0145476	0.000963746	0.578583	-0.0355454	0.0156894	-0.725743	-1.04104	-1.56284	2.07959	-0.503032	-1.31166	-1.59862	2.24496
7.175	-0.96372	-0.0657497	0.075393	0.592664	0.679157	1.22434	0.512488	-0.0502002	-0.0197508	1.30183	-0.241686	-0.211579	0.000376891	0.41264	-0.199639	-0.0422584	1.17912	-0.158543	-0.0143775	0.00096405	0.578767	-0.0352482	0.0157499	-0.726028	-1.04086	-1.56277	2.07983	-0.503555	-1.31155	-1.59851	2.24519
7.18	-0.964189	-0.0659354	0.0751489	0.592857	0.679021	1.22433	0.51257	-0.0499621	-0.0197036	1.30141	-0.241679	-0.212468	0.000377252	0.412628	-0.199952	-0.04268	1.17881	-0.158563	-0.0144014	0.000964354	0.578918	-0.0349938	0.015784	-0.726381	-1.04065	-1.56269	2.08018	-0.503866	-1.31143	-1.5984	2.24535
7.185	-0.964639	-0.066091	0.0749807	0.593048	0.678888	1.22431	0.512622	-0.0497776	-0.0196981	1.30098	-0.241729	-0.213385	0.000377613	0.412619	-0.200216	-0.0430636	1.1785	-0.15861	-0.0145683	0.000964657	0.579017	-0.034818	0.0157767	-0.726738	-1.04039	-1.56261	2.08064	-0.503987	-1.31131	-1.59829	2.24545
7.19	-0.965066	-0.0662111	0.0749073	0.593238	0.678759	1.22429	0.512634	-0.0496644	-0.0197526	1.30056	-0.241739	-0.214119	0.000377973	0.412611	-0.200407	-0.0433841	1.17818	-0.158659	-0.0147906	0.000964959	0.57906	-0.034743	0.0157167	-0.727037	-1.04007	-1.56253	2.08118	-0.503999	-1.31121	-1.59819	2.24549
7.195	-0.965467	-0.0662987	0.0749313	0.593426	0.678632	1.22427	0.512604	-0.0496258	-0.0198743	1.30013	-0.241634	-0.214506	0.000378333	0.412604	-0.200514	-0.0436275	1.17784	-0.158683	-0.0149649	0.000965262	0.579056	-0.0347717	0.0156005	-0.727231	-1.0397	-1.56246	2.08175	-0.504006	-1.31114	-1.59808	2.24548
7.2	-0.965847	-0.0663624	0.0750398	0.593615	0.678507	1.22425	0.512534	-0.0496527	-0.020058	1.29971	-0.241377	-0.214454	0.000378693	0.4126	-0.200536	-0.0437907	1.17747	-0.158656	-0.0149956	0.000965564	0.579018	-0.0348892	0.0154325	-0.727305	-1.03928	-1.56238	2.0823	-0.504092	-1.31112	-1.59797	2.24545
7.205	-0.966212	-0.0664132	0.0752088	0.593806	0.678383	1.22422	0.512433	-0.0497272	-0.0202881	1.29929	-0.240981	-0.213967	0.000379052	0.412599	-0.200478	-0.043879	1.17708	-0.158562	-0.0148154	0.000965865	0.578963	-0.0350677	0.0152233	-0.727277	-1.03883	-1.5623	2.08281	-0.504288	-1.31112	-1.59786	2.24543
7.21	-0.966568	-0.0664619	0.07541	0.593997	0.678259	1.22419	0.512308	-0.0498268	-0.0205422	1.29886	-0.240505	-0.213142	0.000379411	0.412602	-0.200352	-0.0438995	1.17666	-0.158395	-0.0144035	0.000966166	0.578897	-0.0352743	0.0149857	-0.727178	-1.03837	-1.56222	2.08325	-0.504581	-1.31114	-1.59776	2.24545
7.215	-0.966921	-0.0665171	0.0756185	0.594188	0.678135	1.22416	0.512166	-0.0499291	-0.0207973	1.29842	-0.240055	-0.212161	0.000379769	0.41261	-0.200169	-0.0438553	1.17623	-0.158164	-0.0137976	0.000966467	0.578827	-0.0354801	0.0147311	-0.727048	-1.03792	-1.56215	2.08362	-0.504931	-1.31116	-1.59765	2.24552
7.22	-0.967276	-0.0665844	0.0758167	0.594378	0.67801	1.22412	0.512011	-0.0500154	-0.021034	1.29796	-0.239763	-0.211269	0.000380127	0.412625	-0.199942	-0.0437476	1.1758	-0.157898	-0.0131047	0.000966767	0.578751	-0.0356657	0.014467	-0.726922	-1.03749	-1.56207	2.08393	-0.505296	-1.31114	-1.59754	2.24565
7.225	-0.967635	-0.0666669	0.0759959	0.594567	0.677884	1.22409	0.511846	-0.0500722	-0.0212386	1.29748	-0.239763	-0.210723	0.000380485	0.412645	-0.199684	-0.0435835	1.17538	-0.157645	-0.0124812	0.000967067	0.578668	-0.0358222	0.0141965	-0.72682	-1.03708	-1.56199	2.08417	-0.505652	-1.31108	-1.59743	2.24581
7.23	-0.967998	-0.0667657	0.0761539	0.594754	0.677758	1.22406	0.511672	-0.0500922	-0.0214053	1.29697	-0.240139	-0.2107	0.000380842	0.412671	-0.199413	-0.0433831	1.17499	-0.157468	-0.0120811	0.000967367	0.578579	-0.0359486	0.013919	-0.726752	-1.0367	-1.56191	2.08436	-0.505994	-1.31099	-1.59732	2.24601
7.235	-0.968367	-0.0668803	0.0762936	0.59494	0.677631	1.22403	0.511492	-0.0500756	-0.0215373	1.29643	-0.24085	-0.211158	0.000381199	0.412701	-0.199151	-0.0431775	1.17463	-0.157409	-0.0119824	0.000967666	0.578484	-0.0360487	0.0136318	-0.726722	-1.03635	-1.56183	2.08449	-0.506326	-1.31086	-1.59722	2.24621
7.24	-0.968741	-0.0670097	0.0764208	0.595125	0.677502	1.22401	0.51131	-0.050027	-0.0216434	1.29587	-0.241789	-0.211943	0.000381555	0.412732	-0.19892	-0.0430033	1.17432	-0.157494	-0.0122057	0.000967964	0.578386	-0.0361292	0.0133315	-0.726727	-1.03605	-1.56176	2.08458	-0.50665	-1.3107	-1.59711	2.24641
7.245	-0.969121	-0.0671524	0.0765428	0.595309	0.677372	1.22398	0.511135	-0.049953	-0.0217355	1.29532	-0.24281	-0.212834	0.000381911	0.412764	-0.198737	-0.042887	1.17403	-0.157724	-0.0127094	0.000968263	0.578289	-0.0361979	0.0130147	-0.726758	-1.03578	-1.56168	2.08462	-0.506964	-1.31052	-1.597	2.2466
7.25	-0.969509	-0.0673075	0.0766672	0.595491	0.677241	1.22397	0.510973	-0.0498601	-0.0218262	1.29477	-0.24376	-0.2136	0.000382267	0.412797	-0.198611	-0.0428381	1.17376	-0.158073	-0.0134022	0.000968561	0.578195	-0.0362625	0.0126782	-0.726802	-1.03555	-1.5616	2.08463	-0.507267	-1.31032	-1.59689	2.24678
7.255	-0.969904	-0.067474	0.0768007	0.595672	0.677108	1.22395	0.510831	-0.049754	-0.0219263	1.29423	-0.244505	-0.21405	0.000382623	0.412831	-0.198544	-0.0428501	1.1735	-0.15849	-0.0141648	0.000968859	0.578102	-0.0363291	0.0123203	-0.726841	-1.03535	-1.56152	2.08461	-0.507555	-1.31013	-1.59678	2.24693
7.26	-0.970305	-0.0676503	0.0769476	0.595851	0.676973	1.22394	0.510711	-0.0496395	-0.0220427	1.29373	-0.244945	-0.214055	0.000382977	0.412865	-0.198527	-0.0429048	1.17322	-0.158911	-0.0148776	0.000969156	0.578009	-0.036401	0.0119422	-0.726859	-1.03517	-1.56144	2.08459	-0.507822	-1.30993	-1.59667	2.24705
7.265	-0.970707	-0.0678334	0.0771076	0.596028	0.676838	1.22393	0.510612	-0.0495214	-0.0221771	1.29325	-0.245032	-0.213572	0.000383332	0.41289	-0.198549	-0.042979	1.1729	-0.159276	-0.0154431	0.000969453	0.577906	-0.0364776	0.0115494	-0.726846	-1.03502	-1.56136	2.08457	-0.508062	-1.30973	-1.59656	2.24714
7.27	-0.971101	-0.068019	0.0772758	0.596204	0.676703	1.22392	0.510528	-0.0494047	-0.022325	1.29281	-0.244773	-0.212649	0.000383686	0.412896	-0.198596	-0.0430539	1.17253	-0.159544	-0.0157993	0.000969749	0.577786	-0.0365554	0.0111521	-0.726796	-1.03489	-1.56129	2.08457	-0.508271	-1.30954	-1.59645	2.24719
7.275	-0.971482	-0.0682017	0.0774431	0.596379	0.676568	1.22391	0.510452	-0.0492943	-0.0224763	1.29241	-0.244237	-0.211428	0.00038404	0.41287	-0.198656	-0.043121	1.17212	-0.159699	-0.015927	0.000970045	0.577643	-0.0366297	0.0107643	-0.726709	-1.03477	-1.56121	2.0846	-0.508456	-1.30935	-1.59634	2.24721
7.28	-0.971846	-0.0683756	0.0775988	0.596554	0.676433	1.2239	0.510374	-0.0491931	-0.0226174	1.29202	-0.243548	-0.210135	0.000384394	0.412804	-0.198719	-0.0431831	1.17165	-0.159756	-0.0158518	0.000970341	0.577478	-0.0366971	0.0104014	-0.726589	-1.03468	-1.56113	2.08465	-0.508643	-1.30917	-1.59623	2.24719
7.285	-0.972191	-0.0685354	0.0777325	0.596732	0.676297	1.2239	0.510289	-0.0491021	-0.0227326	1.29165	-0.242866	-0.209053	0.000384747	0.412693	-0.198782	-0.0432504	1.17115	-0.159754	-0.0156415	0.000970636	0.577299	-0.0367567	0.010079	-0.726438	-1.03462	-1.56105	2.08472	-0.50887	-1.30903	-1.59612	2.24711
7.29	-0.972522	-0.0686767	0.0778359	0.596913	0.676161	1.22389	0.510191	-0.0490196	-0.0228073	1.29129	-0.242356	-0.208459	0.000385099	0.41254	-0.198842	-0.0433351	1.17062	-0.159744	-0.0153912	0.000970931	0.577112	-0.0368098	0.00981165	-0.726265	-1.03457	-1.56097	2.0848	-0.50916	-1.30893	-1.59601	2.24699
7.295	-0.972839	-0.0687958	0.0779029	0.597098	0.676025	1.22389	0.510077	-0.0489431	-0.0228317	1.29092	-0.242131	-0.208527	0.000385452	0.412349	-0.198901	-0.0434459	1.17008	-0.159768	-0.0151908	0.000971226	0.576921	-0.0368598	0.00961209	-0.72608	-1.03453	-1.56089	2.08488	-0.509495	-1.30889	-1.5959	2.24681
7.3	-0.973145	-0.0688901	0.0779314	0.597284	0.675888	1.22389	0.509949	-0.0488719	-0.0228047	1.29055	-0.242175	-0.209184	0.000385804	0.412126	-0.19896	-0.0435816	1.16952	-0.159834	-0.0150733	0.00097152	0.576719	-0.0369119	0.00948893	-0.725895	-1.03449	-1.56081	2.08498	-0.509822	-1.3089	-1.59579	2.24659
